<mxfile host="app.diagrams.net" agent="Mozilla/5.0 (Windows NT 10.0; Win64; x64) AppleWebKit/537.36 (KHTML, like Gecko) Chrome/128.0.0.0 Safari/537.36" version="24.7.7" pages="2">
  <diagram name="Página-1" id="DGsqQPYIJQbKNCPXhMsJ">
    <mxGraphModel dx="1760" dy="868" grid="0" gridSize="10" guides="1" tooltips="1" connect="1" arrows="1" fold="1" page="1" pageScale="1" pageWidth="1169" pageHeight="827" math="0" shadow="0">
      <root>
        <mxCell id="0" />
        <mxCell id="1" parent="0" />
        <mxCell id="VSM80FEj64X5AF1LNCMf-4" value="" style="shape=sumEllipse;perimeter=ellipsePerimeter;whiteSpace=wrap;html=1;backgroundOutline=1;" parent="1" vertex="1">
          <mxGeometry x="40" y="40" width="100" height="100" as="geometry" />
        </mxCell>
        <mxCell id="VSM80FEj64X5AF1LNCMf-5" value="" style="endArrow=none;html=1;rounded=0;" parent="1" edge="1">
          <mxGeometry width="50" height="50" relative="1" as="geometry">
            <mxPoint y="89" as="sourcePoint" />
            <mxPoint x="1140" y="89" as="targetPoint" />
          </mxGeometry>
        </mxCell>
        <mxCell id="VSM80FEj64X5AF1LNCMf-7" value="Heading" style="whiteSpace=wrap;html=1;fontSize=35;" parent="1" vertex="1">
          <mxGeometry x="460" y="110" width="190" height="60" as="geometry" />
        </mxCell>
        <mxCell id="VSM80FEj64X5AF1LNCMf-9" value="&lt;div style=&quot;&quot;&gt;&lt;span style=&quot;font-size: 23px; background-color: initial;&quot;&gt;resumo sobre a Kenko Patto oq faz, como faz, o q ela agraga, oq ela proporciona(saude e economicamente), como trabalha com ela, quais as vantagens de trabalhar com ela&lt;/span&gt;&lt;/div&gt;" style="whiteSpace=wrap;html=1;align=center;" parent="1" vertex="1">
          <mxGeometry x="79" y="184" width="1015" height="298" as="geometry" />
        </mxCell>
        <mxCell id="VSM80FEj64X5AF1LNCMf-11" value="&lt;font style=&quot;font-size: 16px;&quot;&gt;Menu&amp;nbsp; &amp;nbsp; &amp;nbsp;catalogo&amp;nbsp; &amp;nbsp; &amp;nbsp;contato&amp;nbsp; &amp;nbsp; &amp;nbsp;empresa&lt;/font&gt;" style="text;strokeColor=none;align=center;fillColor=none;html=1;verticalAlign=middle;whiteSpace=wrap;rounded=0;" parent="1" vertex="1">
          <mxGeometry x="714" y="14" width="413" height="30" as="geometry" />
        </mxCell>
        <mxCell id="VSM80FEj64X5AF1LNCMf-12" value="" style="verticalLabelPosition=bottom;verticalAlign=top;html=1;shape=mxgraph.flowchart.summing_function;" parent="1" vertex="1">
          <mxGeometry x="500" y="554.25" width="169.5" height="169.5" as="geometry" />
        </mxCell>
        <mxCell id="VSM80FEj64X5AF1LNCMf-13" value="&lt;font style=&quot;font-size: 19px;&quot;&gt;sobre Maria Júlia&lt;/font&gt;" style="whiteSpace=wrap;html=1;align=center;" parent="1" vertex="1">
          <mxGeometry x="80" y="511" width="411" height="256" as="geometry" />
        </mxCell>
        <mxCell id="VSM80FEj64X5AF1LNCMf-14" value="&lt;font style=&quot;font-size: 17px;&quot;&gt;mudanças na vida dela&lt;/font&gt;" style="whiteSpace=wrap;html=1;align=center;" parent="1" vertex="1">
          <mxGeometry x="679" y="511" width="411" height="256" as="geometry" />
        </mxCell>
        <mxCell id="VSM80FEj64X5AF1LNCMf-21" value="" style="line;strokeWidth=2;html=1;" parent="1" vertex="1">
          <mxGeometry x="45" y="1633" width="1081" height="10" as="geometry" />
        </mxCell>
        <mxCell id="aKjQmdAK-u5cf6OCAZIf-1" value="" style="verticalLabelPosition=bottom;verticalAlign=top;html=1;shape=mxgraph.basic.banner" parent="1" vertex="1">
          <mxGeometry x="496" y="730" width="178" height="50" as="geometry" />
        </mxCell>
        <mxCell id="Zj-dW8tiq4TBuCb3AxjM-1" value="" style="group" vertex="1" connectable="0" parent="1">
          <mxGeometry x="259" y="1274" width="100" height="100" as="geometry" />
        </mxCell>
        <mxCell id="G3FBcfLDIwjlkrMmJh7R-3" value="" style="shape=note;whiteSpace=wrap;html=1;backgroundOutline=1;darkOpacity=0.05;" parent="Zj-dW8tiq4TBuCb3AxjM-1" vertex="1">
          <mxGeometry x="10" width="80" height="100" as="geometry" />
        </mxCell>
        <mxCell id="G3FBcfLDIwjlkrMmJh7R-5" value="&lt;span style=&quot;font-weight: normal;&quot;&gt;img&lt;/span&gt;" style="text;strokeColor=none;fillColor=none;html=1;fontSize=24;fontStyle=1;verticalAlign=middle;align=center;" parent="Zj-dW8tiq4TBuCb3AxjM-1" vertex="1">
          <mxGeometry y="39" width="100" height="40" as="geometry" />
        </mxCell>
        <mxCell id="Zj-dW8tiq4TBuCb3AxjM-2" value="" style="group" vertex="1" connectable="0" parent="1">
          <mxGeometry x="735" y="1274" width="100" height="100" as="geometry" />
        </mxCell>
        <mxCell id="G3FBcfLDIwjlkrMmJh7R-4" value="" style="shape=note;whiteSpace=wrap;html=1;backgroundOutline=1;darkOpacity=0.05;" parent="Zj-dW8tiq4TBuCb3AxjM-2" vertex="1">
          <mxGeometry x="10" width="80" height="100" as="geometry" />
        </mxCell>
        <mxCell id="G3FBcfLDIwjlkrMmJh7R-6" value="&lt;span style=&quot;font-weight: normal;&quot;&gt;img&lt;/span&gt;" style="text;strokeColor=none;fillColor=none;html=1;fontSize=24;fontStyle=1;verticalAlign=middle;align=center;" parent="Zj-dW8tiq4TBuCb3AxjM-2" vertex="1">
          <mxGeometry y="35" width="100" height="40" as="geometry" />
        </mxCell>
        <mxCell id="Zj-dW8tiq4TBuCb3AxjM-3" value="" style="group" vertex="1" connectable="0" parent="1">
          <mxGeometry x="229" y="827" width="697" height="427" as="geometry" />
        </mxCell>
        <mxCell id="G3FBcfLDIwjlkrMmJh7R-2" value="" style="rounded=0;whiteSpace=wrap;html=1;verticalAlign=bottom;" parent="Zj-dW8tiq4TBuCb3AxjM-3" vertex="1">
          <mxGeometry width="697" height="427" as="geometry" />
        </mxCell>
        <mxCell id="VSM80FEj64X5AF1LNCMf-15" value="&lt;font style=&quot;font-size: 21px;&quot;&gt;como trabalhar nessa empresa características, como atuar, eventos&lt;br&gt;&amp;nbsp;e ações diferencias&lt;/font&gt;&lt;div&gt;&lt;font style=&quot;font-size: 21px;&quot;&gt;&lt;br&gt;&lt;/font&gt;&lt;/div&gt;" style="text;html=1;align=center;verticalAlign=middle;resizable=0;points=[];autosize=1;strokeColor=none;fillColor=none;fontSize=21;" parent="Zj-dW8tiq4TBuCb3AxjM-3" vertex="1">
          <mxGeometry x="24" y="167" width="649" height="88" as="geometry" />
        </mxCell>
        <mxCell id="Zj-dW8tiq4TBuCb3AxjM-4" value="" style="group" vertex="1" connectable="0" parent="1">
          <mxGeometry x="40" y="1433" width="1083" height="200" as="geometry" />
        </mxCell>
        <mxCell id="VSM80FEj64X5AF1LNCMf-29" value="" style="verticalLabelPosition=bottom;verticalAlign=top;html=1;shape=mxgraph.basic.patternFillRect;fillStyle=hor;step=5;fillStrokeWidth=0.2;fillStrokeColor=#dddddd;" parent="Zj-dW8tiq4TBuCb3AxjM-4" vertex="1">
          <mxGeometry width="1083" height="200" as="geometry" />
        </mxCell>
        <mxCell id="G3FBcfLDIwjlkrMmJh7R-7" value="" style="shape=ext;double=1;rounded=1;whiteSpace=wrap;html=1;" parent="Zj-dW8tiq4TBuCb3AxjM-4" vertex="1">
          <mxGeometry x="29" y="34" width="188" height="132" as="geometry" />
        </mxCell>
        <mxCell id="G3FBcfLDIwjlkrMmJh7R-8" value="" style="triangle;whiteSpace=wrap;html=1;" parent="Zj-dW8tiq4TBuCb3AxjM-4" vertex="1">
          <mxGeometry x="93" y="60" width="60" height="80" as="geometry" />
        </mxCell>
        <mxCell id="G3FBcfLDIwjlkrMmJh7R-9" value="&amp;nbsp; &amp;nbsp; &amp;nbsp; &amp;nbsp; &amp;nbsp; &amp;nbsp; &amp;nbsp; &amp;nbsp; &amp;nbsp; &amp;nbsp; &amp;nbsp; &amp;nbsp; &amp;nbsp; &amp;nbsp;vídeo/plsynist sobre a empresa&amp;nbsp; &amp;nbsp; &amp;nbsp; &amp;nbsp; &amp;nbsp; &amp;nbsp; &amp;nbsp; &amp;nbsp; &amp;nbsp; &amp;nbsp; &amp;nbsp; &amp;nbsp; &amp;nbsp; &amp;nbsp; &amp;nbsp; &amp;nbsp; &amp;nbsp; &amp;nbsp;&amp;nbsp;" style="text;strokeColor=none;fillColor=none;html=1;fontSize=24;fontStyle=1;verticalAlign=middle;align=center;labelBorderColor=default;" parent="Zj-dW8tiq4TBuCb3AxjM-4" vertex="1">
          <mxGeometry x="246" y="54" width="777" height="40" as="geometry" />
        </mxCell>
        <UserObject label="Link" link="https://www.draw.io" id="G3FBcfLDIwjlkrMmJh7R-10">
          <mxCell style="text;html=1;strokeColor=none;fillColor=none;whiteSpace=wrap;align=center;verticalAlign=middle;fontColor=#0000EE;fontStyle=4;" parent="Zj-dW8tiq4TBuCb3AxjM-4" vertex="1">
            <mxGeometry x="564" y="77" width="60" height="40" as="geometry" />
          </mxCell>
        </UserObject>
        <mxCell id="Zj-dW8tiq4TBuCb3AxjM-5" value="" style="group" vertex="1" connectable="0" parent="1">
          <mxGeometry x="15" y="1667" width="1140" height="323" as="geometry" />
        </mxCell>
        <mxCell id="G3FBcfLDIwjlkrMmJh7R-19" value="" style="rounded=1;whiteSpace=wrap;html=1;strokeWidth=2;fillWeight=4;hachureGap=8;hachureAngle=45;fillColor=#CAC2E2;sketch=1;" parent="Zj-dW8tiq4TBuCb3AxjM-5" vertex="1">
          <mxGeometry width="1140" height="323" as="geometry" />
        </mxCell>
        <mxCell id="VSM80FEj64X5AF1LNCMf-23" value="Icon" style="icon;html=1;image=img/clipart/Gear_128x128.png" parent="Zj-dW8tiq4TBuCb3AxjM-5" vertex="1">
          <mxGeometry x="1000" y="151" width="90" height="90" as="geometry" />
        </mxCell>
        <mxCell id="VSM80FEj64X5AF1LNCMf-24" value="Icon" style="icon;html=1;image=img/clipart/Gear_128x128.png" parent="Zj-dW8tiq4TBuCb3AxjM-5" vertex="1">
          <mxGeometry x="880" y="21" width="90" height="90" as="geometry" />
        </mxCell>
        <mxCell id="VSM80FEj64X5AF1LNCMf-27" value="" style="verticalLabelPosition=bottom;verticalAlign=top;html=1;shape=mxgraph.basic.rect;fillColor2=none;strokeWidth=1;size=20;indent=5;" parent="Zj-dW8tiq4TBuCb3AxjM-5" vertex="1">
          <mxGeometry x="61" y="21" width="659" height="212" as="geometry" />
        </mxCell>
        <mxCell id="G3FBcfLDIwjlkrMmJh7R-11" value="descrição da fabrica&lt;div&gt;&amp;nbsp;(onde fica e afins)&lt;/div&gt;" style="text;strokeColor=none;fillColor=none;html=1;fontSize=24;fontStyle=1;verticalAlign=middle;align=center;" parent="Zj-dW8tiq4TBuCb3AxjM-5" vertex="1">
          <mxGeometry x="205" y="81" width="532" height="40" as="geometry" />
        </mxCell>
        <mxCell id="G3FBcfLDIwjlkrMmJh7R-12" value="" style="shape=note;whiteSpace=wrap;html=1;backgroundOutline=1;darkOpacity=0.05;" parent="Zj-dW8tiq4TBuCb3AxjM-5" vertex="1">
          <mxGeometry x="78" y="38" width="180" height="173" as="geometry" />
        </mxCell>
        <mxCell id="G3FBcfLDIwjlkrMmJh7R-13" value="img maps" style="text;html=1;align=center;verticalAlign=middle;whiteSpace=wrap;rounded=0;" parent="Zj-dW8tiq4TBuCb3AxjM-5" vertex="1">
          <mxGeometry x="132" y="121" width="60" height="30" as="geometry" />
        </mxCell>
        <UserObject label="&lt;font style=&quot;font-size: 22px;&quot;&gt;Link&lt;/font&gt;" link="https://www.draw.io" id="G3FBcfLDIwjlkrMmJh7R-14">
          <mxCell style="text;html=1;strokeColor=none;fillColor=none;whiteSpace=wrap;align=center;verticalAlign=middle;fontColor=#0000EE;fontStyle=4;" parent="Zj-dW8tiq4TBuCb3AxjM-5" vertex="1">
            <mxGeometry x="267" y="151" width="443" height="40" as="geometry" />
          </mxCell>
        </UserObject>
        <mxCell id="G3FBcfLDIwjlkrMmJh7R-15" value="Icon" style="icon;html=1;image=img/clipart/Gear_128x128.png" parent="Zj-dW8tiq4TBuCb3AxjM-5" vertex="1">
          <mxGeometry x="1005" y="21" width="90" height="90" as="geometry" />
        </mxCell>
        <mxCell id="G3FBcfLDIwjlkrMmJh7R-16" value="Icon" style="icon;html=1;image=img/clipart/Gear_128x128.png" parent="Zj-dW8tiq4TBuCb3AxjM-5" vertex="1">
          <mxGeometry x="760" y="151" width="90" height="90" as="geometry" />
        </mxCell>
        <mxCell id="G3FBcfLDIwjlkrMmJh7R-17" value="Icon" style="icon;html=1;image=img/clipart/Gear_128x128.png" parent="Zj-dW8tiq4TBuCb3AxjM-5" vertex="1">
          <mxGeometry x="880" y="151" width="90" height="90" as="geometry" />
        </mxCell>
        <mxCell id="G3FBcfLDIwjlkrMmJh7R-18" value="" style="shape=orEllipse;perimeter=ellipsePerimeter;whiteSpace=wrap;html=1;backgroundOutline=1;" parent="Zj-dW8tiq4TBuCb3AxjM-5" vertex="1">
          <mxGeometry x="760" y="28" width="90" height="90" as="geometry" />
        </mxCell>
      </root>
    </mxGraphModel>
  </diagram>
  <diagram id="8-iJd-Ef1t959lijtK2D" name="Page-2">
    <mxGraphModel dx="880" dy="434" grid="1" gridSize="10" guides="1" tooltips="1" connect="1" arrows="1" fold="1" page="1" pageScale="1" pageWidth="827" pageHeight="1169" math="0" shadow="0">
      <root>
        <mxCell id="0" />
        <mxCell id="1" parent="0" />
        <mxCell id="X4LEFh4c7GkqBgULQ8IZ-1" value="" style="rounded=0;whiteSpace=wrap;html=1;" parent="1" vertex="1">
          <mxGeometry x="40" y="1220" width="510" height="520" as="geometry" />
        </mxCell>
        <mxCell id="r2p_q_DRn6OBqrZlweKZ-1" value="" style="shape=sumEllipse;perimeter=ellipsePerimeter;whiteSpace=wrap;html=1;backgroundOutline=1;" parent="1" vertex="1">
          <mxGeometry x="40" y="40" width="120" height="120" as="geometry" />
        </mxCell>
        <mxCell id="KvcR4RIIoVGIzCTDaifZ-2" value="" style="endArrow=none;html=1;rounded=0;" parent="1" edge="1">
          <mxGeometry width="50" height="50" relative="1" as="geometry">
            <mxPoint x="20" y="90" as="sourcePoint" />
            <mxPoint x="790" y="90" as="targetPoint" />
          </mxGeometry>
        </mxCell>
        <mxCell id="KvcR4RIIoVGIzCTDaifZ-3" value="" style="verticalLabelPosition=bottom;verticalAlign=top;html=1;shape=mxgraph.basic.patternFillRect;fillStyle=diag;step=5;fillStrokeWidth=0.2;fillStrokeColor=#dddddd;" parent="1" vertex="1">
          <mxGeometry x="740" y="20" width="60" height="10" as="geometry" />
        </mxCell>
        <mxCell id="KvcR4RIIoVGIzCTDaifZ-4" value="" style="verticalLabelPosition=bottom;verticalAlign=top;html=1;shape=mxgraph.basic.patternFillRect;fillStyle=diag;step=5;fillStrokeWidth=0.2;fillStrokeColor=#dddddd;" parent="1" vertex="1">
          <mxGeometry x="740" y="35" width="60" height="10" as="geometry" />
        </mxCell>
        <mxCell id="KvcR4RIIoVGIzCTDaifZ-5" value="" style="verticalLabelPosition=bottom;verticalAlign=top;html=1;shape=mxgraph.basic.patternFillRect;fillStyle=diag;step=5;fillStrokeWidth=0.2;fillStrokeColor=#dddddd;" parent="1" vertex="1">
          <mxGeometry x="740" y="50" width="60" height="10" as="geometry" />
        </mxCell>
        <mxCell id="Iui0lqI1KNWUsenBTH-7-1" value="&lt;font style=&quot;font-size: 58px;&quot;&gt;Heading&lt;/font&gt;" style="whiteSpace=wrap;html=1;fontSize=35;" parent="1" vertex="1">
          <mxGeometry x="210" y="110" width="380" height="120" as="geometry" />
        </mxCell>
        <mxCell id="NXRJMm1Wl9gJ3KY69vzZ-1" value="&lt;font style=&quot;font-size: 25px;&quot;&gt;resumo sobre a Kenko Patto oq faz, como faz, o q ela agraga, oq ela proporciona(saude e economicamente), como trabalha com ela, quais as vantagens de trabalhar com ela&lt;/font&gt;" style="whiteSpace=wrap;html=1;align=center;" parent="1" vertex="1">
          <mxGeometry x="33" y="251" width="760" height="349" as="geometry" />
        </mxCell>
        <mxCell id="ebGXN-UTlnNasjXm3oPx-1" value="&lt;font style=&quot;font-size: 19px;&quot;&gt;sobre Maria Júlia&lt;/font&gt;" style="whiteSpace=wrap;html=1;align=center;" parent="1" vertex="1">
          <mxGeometry x="260" y="670" width="545.86" height="440" as="geometry" />
        </mxCell>
        <mxCell id="LZA_4NyY1v5M5KcLGQrL-1" value="" style="verticalLabelPosition=bottom;verticalAlign=top;html=1;shape=mxgraph.flowchart.summing_function;" parent="1" vertex="1">
          <mxGeometry x="20" y="778.5" width="223" height="223" as="geometry" />
        </mxCell>
        <mxCell id="rjjC7vrXv90tubW2lcuH-3" value="&lt;font style=&quot;font-size: 19px;&quot;&gt;&lt;font style=&quot;font-size: 19px;&quot;&gt;como trabalhar nessa empresa características,&lt;/font&gt;&lt;/font&gt;&lt;div&gt;&lt;font style=&quot;font-size: 19px;&quot;&gt;&lt;font style=&quot;font-size: 19px;&quot;&gt;como atuar, eventos e ações diferencias&lt;/font&gt;&lt;br&gt;&lt;/font&gt;&lt;div style=&quot;font-size: 19px;&quot;&gt;&lt;font style=&quot;font-size: 19px;&quot;&gt;&lt;br&gt;&lt;/font&gt;&lt;/div&gt;&lt;/div&gt;" style="text;html=1;align=center;verticalAlign=middle;resizable=0;points=[];autosize=1;strokeColor=none;fillColor=none;" parent="1" vertex="1">
          <mxGeometry x="60" y="1440" width="420" height="80" as="geometry" />
        </mxCell>
        <mxCell id="MVF-NtLu1AlFVdGl3USb-1" value="" style="verticalLabelPosition=bottom;verticalAlign=top;html=1;shape=mxgraph.basic.rect;fillColor2=none;strokeWidth=1;size=20;indent=5;" parent="1" vertex="1">
          <mxGeometry x="10" y="1760" width="790" height="150" as="geometry" />
        </mxCell>
        <mxCell id="X4LEFh4c7GkqBgULQ8IZ-3" value="" style="shape=note;whiteSpace=wrap;html=1;backgroundOutline=1;darkOpacity=0.05;size=87;" parent="1" vertex="1">
          <mxGeometry x="602.5" y="1220" width="190" height="180" as="geometry" />
        </mxCell>
        <mxCell id="X4LEFh4c7GkqBgULQ8IZ-4" value="img" style="text;html=1;align=center;verticalAlign=middle;whiteSpace=wrap;rounded=0;" parent="1" vertex="1">
          <mxGeometry x="663.5" y="1265" width="60" height="90" as="geometry" />
        </mxCell>
        <mxCell id="X4LEFh4c7GkqBgULQ8IZ-5" value="" style="shape=note;whiteSpace=wrap;html=1;backgroundOutline=1;darkOpacity=0.05;size=87;" parent="1" vertex="1">
          <mxGeometry x="610" y="1470" width="190" height="180" as="geometry" />
        </mxCell>
        <mxCell id="X4LEFh4c7GkqBgULQ8IZ-6" value="img" style="text;html=1;align=center;verticalAlign=middle;whiteSpace=wrap;rounded=0;" parent="1" vertex="1">
          <mxGeometry x="671" y="1515" width="60" height="90" as="geometry" />
        </mxCell>
        <mxCell id="fiTfk_zbXVkOkwCaRIPI-1" value="" style="shape=ext;double=1;rounded=1;whiteSpace=wrap;html=1;" parent="1" vertex="1">
          <mxGeometry x="40" y="1774.5" width="172.33" height="121" as="geometry" />
        </mxCell>
        <mxCell id="fiTfk_zbXVkOkwCaRIPI-2" value="" style="triangle;whiteSpace=wrap;html=1;" parent="1" vertex="1">
          <mxGeometry x="104" y="1800.5" width="48.75" height="65" as="geometry" />
        </mxCell>
        <mxCell id="JI5EUnYwFgxwicJIQYi_-1" value="&amp;nbsp; &amp;nbsp; &amp;nbsp; &amp;nbsp; &amp;nbsp; &amp;nbsp; &amp;nbsp; &amp;nbsp;vídeo/plsynist sobre a empresa&amp;nbsp; &amp;nbsp; &amp;nbsp; &amp;nbsp; &amp;nbsp; &amp;nbsp; &amp;nbsp; &amp;nbsp;&amp;nbsp;" style="text;strokeColor=none;fillColor=none;html=1;fontSize=24;fontStyle=1;verticalAlign=middle;align=center;labelBorderColor=default;" parent="1" vertex="1">
          <mxGeometry x="229" y="1790" width="564" height="40" as="geometry" />
        </mxCell>
        <UserObject label="alskdlaskdlaksdlkasldklasskdlaskdlkasldkaslkdlaskd" link="https://www.draw.io" id="JI5EUnYwFgxwicJIQYi_-2">
          <mxCell style="text;html=1;strokeColor=none;fillColor=none;whiteSpace=wrap;align=center;verticalAlign=middle;fontColor=#0000EE;fontStyle=4;" parent="1" vertex="1">
            <mxGeometry x="450" y="1825.5" width="60" height="40" as="geometry" />
          </mxCell>
        </UserObject>
        <mxCell id="O-vwELs3RWgRDbuuFP77-2" value="" style="group" vertex="1" connectable="0" parent="1">
          <mxGeometry x="15" y="1930" width="780" height="390" as="geometry" />
        </mxCell>
        <mxCell id="uMMV1ZB-pv_lmxN3f1N2-1" value="" style="rounded=1;whiteSpace=wrap;html=1;strokeWidth=2;fillWeight=4;hachureGap=8;hachureAngle=45;fillColor=#DAD9E2;sketch=1;" parent="O-vwELs3RWgRDbuuFP77-2" vertex="1">
          <mxGeometry width="780" height="390" as="geometry" />
        </mxCell>
        <mxCell id="JI5EUnYwFgxwicJIQYi_-3" value="Icon" style="icon;html=1;image=img/clipart/Gear_128x128.png" parent="O-vwELs3RWgRDbuuFP77-2" vertex="1">
          <mxGeometry x="325" y="140" width="110" height="110" as="geometry" />
        </mxCell>
        <mxCell id="JI5EUnYwFgxwicJIQYi_-5" value="Icon" style="icon;html=1;image=img/clipart/Gear_128x128.png" parent="O-vwELs3RWgRDbuuFP77-2" vertex="1">
          <mxGeometry x="465" y="140" width="110" height="110" as="geometry" />
        </mxCell>
        <mxCell id="JI5EUnYwFgxwicJIQYi_-6" value="Icon" style="icon;html=1;image=img/clipart/Gear_128x128.png" parent="O-vwELs3RWgRDbuuFP77-2" vertex="1">
          <mxGeometry x="627.5" y="140" width="110" height="110" as="geometry" />
        </mxCell>
        <mxCell id="JI5EUnYwFgxwicJIQYi_-7" value="Icon" style="icon;html=1;image=img/clipart/Gear_128x128.png" parent="O-vwELs3RWgRDbuuFP77-2" vertex="1">
          <mxGeometry x="35" y="140" width="110" height="110" as="geometry" />
        </mxCell>
        <mxCell id="JI5EUnYwFgxwicJIQYi_-8" value="Icon" style="icon;html=1;image=img/clipart/Gear_128x128.png" parent="O-vwELs3RWgRDbuuFP77-2" vertex="1">
          <mxGeometry x="185" y="140" width="110" height="110" as="geometry" />
        </mxCell>
        <mxCell id="teKnCMSxKBwP3Up9mitu-2" value="local e contato" style="text;strokeColor=none;fillColor=none;html=1;fontSize=24;fontStyle=1;verticalAlign=middle;align=center;" parent="O-vwELs3RWgRDbuuFP77-2" vertex="1">
          <mxGeometry x="85" width="100" height="40" as="geometry" />
        </mxCell>
      </root>
    </mxGraphModel>
  </diagram>
</mxfile>
